<svg xmlns="http://www.w3.org/2000/svg" xmlns:xlink="http://www.w3.org/1999/xlink" width="350" zoomAndPan="magnify" viewBox="0 0 262.5 30.000001" height="40" preserveAspectRatio="xMidYMid meet" version="1.0"><defs><g/><clipPath id="aab8e93d19"><path d="M 181.804688 1.144531 L 192 1.144531 L 192 28.722656 L 181.804688 28.722656 Z M 181.804688 1.144531 " clip-rule="nonzero"/></clipPath><clipPath id="fcba09dcc3"><path d="M 203 1.144531 L 213 1.144531 L 213 28.722656 L 203 28.722656 Z M 203 1.144531 " clip-rule="nonzero"/></clipPath><clipPath id="1581da3949"><path d="M 190.285156 8.074219 L 204.078125 8.074219 L 204.078125 21.863281 L 190.285156 21.863281 Z M 190.285156 8.074219 " clip-rule="nonzero"/></clipPath></defs><g fill="#ffffff" fill-opacity="1"><g transform="translate(26.709951, 19.188979)"><g><path d="M 11.6875 -13.90625 C 10.664062 -14.125 9.789062 -14.234375 9.0625 -14.234375 C 7.320312 -14.234375 6.453125 -13.320312 6.453125 -11.5 L 6.453125 -9.53125 L 11.34375 -9.53125 L 11.34375 -7.921875 L 6.453125 -7.921875 L 6.453125 0 L 4.484375 0 L 4.484375 -7.921875 L 0.890625 -7.921875 L 0.890625 -9.53125 L 4.484375 -9.53125 L 4.484375 -11.390625 C 4.484375 -14.359375 6.03125 -15.84375 9.125 -15.84375 C 9.894531 -15.84375 10.75 -15.753906 11.6875 -15.578125 Z M 0 -11.15625 Z M 0 -11.15625 "/></g></g></g><g fill="#ffffff" fill-opacity="1"><g transform="translate(39.223965, 19.188979)"><g><path d="M 2.234375 -11.15625 L 4 -11.15625 L 4.0625 -9.109375 C 4.71875 -9.898438 5.363281 -10.472656 6 -10.828125 C 6.644531 -11.179688 7.296875 -11.359375 7.953125 -11.359375 C 9.109375 -11.359375 9.984375 -10.984375 10.578125 -10.234375 C 11.171875 -9.484375 11.445312 -8.375 11.40625 -6.90625 L 9.453125 -6.90625 C 9.472656 -7.882812 9.328125 -8.59375 9.015625 -9.03125 C 8.710938 -9.46875 8.265625 -9.6875 7.671875 -9.6875 C 7.410156 -9.6875 7.144531 -9.640625 6.875 -9.546875 C 6.613281 -9.460938 6.34375 -9.316406 6.0625 -9.109375 C 5.789062 -8.898438 5.5 -8.632812 5.1875 -8.3125 C 4.875 -8 4.539062 -7.617188 4.1875 -7.171875 L 4.1875 0 L 2.234375 0 Z M 2.234375 -11.15625 "/></g></g></g><g fill="#ffffff" fill-opacity="1"><g transform="translate(51.73798, 19.188979)"><g><path d="M 11.203125 -6.171875 C 11.203125 -5.898438 11.195312 -5.671875 11.1875 -5.484375 C 11.1875 -5.296875 11.175781 -5.117188 11.15625 -4.953125 L 3.328125 -4.953125 C 3.328125 -3.816406 3.644531 -2.941406 4.28125 -2.328125 C 4.914062 -1.710938 5.832031 -1.40625 7.03125 -1.40625 C 7.363281 -1.40625 7.691406 -1.414062 8.015625 -1.4375 C 8.335938 -1.46875 8.648438 -1.503906 8.953125 -1.546875 C 9.265625 -1.597656 9.554688 -1.648438 9.828125 -1.703125 C 10.109375 -1.765625 10.367188 -1.828125 10.609375 -1.890625 L 10.609375 -0.296875 C 10.078125 -0.148438 9.476562 -0.03125 8.8125 0.0625 C 8.15625 0.15625 7.472656 0.203125 6.765625 0.203125 C 5.804688 0.203125 4.976562 0.0703125 4.28125 -0.1875 C 3.59375 -0.445312 3.03125 -0.820312 2.59375 -1.3125 C 2.15625 -1.8125 1.828125 -2.414062 1.609375 -3.125 C 1.398438 -3.84375 1.296875 -4.65625 1.296875 -5.5625 C 1.296875 -6.34375 1.410156 -7.082031 1.640625 -7.78125 C 1.867188 -8.488281 2.195312 -9.101562 2.625 -9.625 C 3.0625 -10.15625 3.59375 -10.578125 4.21875 -10.890625 C 4.851562 -11.203125 5.570312 -11.359375 6.375 -11.359375 C 7.144531 -11.359375 7.832031 -11.234375 8.4375 -10.984375 C 9.039062 -10.742188 9.546875 -10.398438 9.953125 -9.953125 C 10.367188 -9.503906 10.679688 -8.957031 10.890625 -8.3125 C 11.097656 -7.675781 11.203125 -6.960938 11.203125 -6.171875 Z M 9.1875 -6.453125 C 9.207031 -6.941406 9.160156 -7.390625 9.046875 -7.796875 C 8.929688 -8.210938 8.75 -8.566406 8.5 -8.859375 C 8.25 -9.160156 7.9375 -9.394531 7.5625 -9.5625 C 7.195312 -9.726562 6.769531 -9.8125 6.28125 -9.8125 C 5.851562 -9.8125 5.46875 -9.726562 5.125 -9.5625 C 4.78125 -9.40625 4.476562 -9.175781 4.21875 -8.875 C 3.96875 -8.582031 3.765625 -8.226562 3.609375 -7.8125 C 3.453125 -7.394531 3.359375 -6.941406 3.328125 -6.453125 Z M 9.1875 -6.453125 "/></g></g></g><g fill="#ffffff" fill-opacity="1"><g transform="translate(64.251994, 19.188979)"><g><path d="M 11.203125 -6.171875 C 11.203125 -5.898438 11.195312 -5.671875 11.1875 -5.484375 C 11.1875 -5.296875 11.175781 -5.117188 11.15625 -4.953125 L 3.328125 -4.953125 C 3.328125 -3.816406 3.644531 -2.941406 4.28125 -2.328125 C 4.914062 -1.710938 5.832031 -1.40625 7.03125 -1.40625 C 7.363281 -1.40625 7.691406 -1.414062 8.015625 -1.4375 C 8.335938 -1.46875 8.648438 -1.503906 8.953125 -1.546875 C 9.265625 -1.597656 9.554688 -1.648438 9.828125 -1.703125 C 10.109375 -1.765625 10.367188 -1.828125 10.609375 -1.890625 L 10.609375 -0.296875 C 10.078125 -0.148438 9.476562 -0.03125 8.8125 0.0625 C 8.15625 0.15625 7.472656 0.203125 6.765625 0.203125 C 5.804688 0.203125 4.976562 0.0703125 4.28125 -0.1875 C 3.59375 -0.445312 3.03125 -0.820312 2.59375 -1.3125 C 2.15625 -1.8125 1.828125 -2.414062 1.609375 -3.125 C 1.398438 -3.84375 1.296875 -4.65625 1.296875 -5.5625 C 1.296875 -6.34375 1.410156 -7.082031 1.640625 -7.78125 C 1.867188 -8.488281 2.195312 -9.101562 2.625 -9.625 C 3.0625 -10.15625 3.59375 -10.578125 4.21875 -10.890625 C 4.851562 -11.203125 5.570312 -11.359375 6.375 -11.359375 C 7.144531 -11.359375 7.832031 -11.234375 8.4375 -10.984375 C 9.039062 -10.742188 9.546875 -10.398438 9.953125 -9.953125 C 10.367188 -9.503906 10.679688 -8.957031 10.890625 -8.3125 C 11.097656 -7.675781 11.203125 -6.960938 11.203125 -6.171875 Z M 9.1875 -6.453125 C 9.207031 -6.941406 9.160156 -7.390625 9.046875 -7.796875 C 8.929688 -8.210938 8.75 -8.566406 8.5 -8.859375 C 8.25 -9.160156 7.9375 -9.394531 7.5625 -9.5625 C 7.195312 -9.726562 6.769531 -9.8125 6.28125 -9.8125 C 5.851562 -9.8125 5.46875 -9.726562 5.125 -9.5625 C 4.78125 -9.40625 4.476562 -9.175781 4.21875 -8.875 C 3.96875 -8.582031 3.765625 -8.226562 3.609375 -7.8125 C 3.453125 -7.394531 3.359375 -6.941406 3.328125 -6.453125 Z M 9.1875 -6.453125 "/></g></g></g><g fill="#ffffff" fill-opacity="1"><g transform="translate(76.766008, 19.188979)"><g><path d="M 5.1875 0.140625 C 4.414062 0.0234375 3.742188 -0.21875 3.171875 -0.59375 C 2.609375 -0.976562 2.132812 -1.476562 1.75 -2.09375 C 1.375 -2.71875 1.09375 -3.445312 0.90625 -4.28125 C 0.726562 -5.125 0.640625 -6.054688 0.640625 -7.078125 C 0.640625 -8.398438 0.789062 -9.539062 1.09375 -10.5 C 1.394531 -11.46875 1.804688 -12.265625 2.328125 -12.890625 C 2.847656 -13.515625 3.457031 -13.976562 4.15625 -14.28125 C 4.851562 -14.582031 5.59375 -14.734375 6.375 -14.734375 C 7.300781 -14.734375 8.109375 -14.5625 8.796875 -14.21875 C 9.492188 -13.882812 10.070312 -13.398438 10.53125 -12.765625 C 11 -12.128906 11.34375 -11.359375 11.5625 -10.453125 C 11.789062 -9.554688 11.90625 -8.546875 11.90625 -7.421875 C 11.90625 -6.234375 11.78125 -5.191406 11.53125 -4.296875 C 11.28125 -3.410156 10.9375 -2.65625 10.5 -2.03125 C 10.0625 -1.40625 9.546875 -0.914062 8.953125 -0.5625 C 8.359375 -0.207031 7.71875 0.0234375 7.03125 0.140625 C 7.144531 0.785156 7.40625 1.304688 7.8125 1.703125 C 8.21875 2.097656 8.789062 2.296875 9.53125 2.296875 C 9.894531 2.296875 10.25 2.234375 10.59375 2.109375 C 10.9375 1.992188 11.285156 1.796875 11.640625 1.515625 L 12.515625 2.890625 C 12.023438 3.285156 11.519531 3.566406 11 3.734375 C 10.488281 3.910156 9.957031 4 9.40625 4 C 8.8125 4 8.265625 3.914062 7.765625 3.75 C 7.273438 3.59375 6.84375 3.351562 6.46875 3.03125 C 6.101562 2.707031 5.8125 2.300781 5.59375 1.8125 C 5.375 1.332031 5.238281 0.773438 5.1875 0.140625 Z M 9.84375 -7.1875 C 9.84375 -8.050781 9.773438 -8.835938 9.640625 -9.546875 C 9.515625 -10.253906 9.304688 -10.859375 9.015625 -11.359375 C 8.734375 -11.867188 8.363281 -12.265625 7.90625 -12.546875 C 7.445312 -12.828125 6.898438 -12.96875 6.265625 -12.96875 C 5.640625 -12.96875 5.101562 -12.816406 4.65625 -12.515625 C 4.207031 -12.222656 3.835938 -11.820312 3.546875 -11.3125 C 3.253906 -10.8125 3.035156 -10.222656 2.890625 -9.546875 C 2.753906 -8.867188 2.6875 -8.144531 2.6875 -7.375 C 2.6875 -6.5 2.753906 -5.703125 2.890625 -4.984375 C 3.023438 -4.265625 3.234375 -3.648438 3.515625 -3.140625 C 3.804688 -2.628906 4.175781 -2.234375 4.625 -1.953125 C 5.070312 -1.679688 5.617188 -1.546875 6.265625 -1.546875 C 6.878906 -1.546875 7.410156 -1.691406 7.859375 -1.984375 C 8.316406 -2.285156 8.691406 -2.691406 8.984375 -3.203125 C 9.273438 -3.710938 9.488281 -4.3125 9.625 -5 C 9.769531 -5.6875 9.84375 -6.414062 9.84375 -7.1875 Z M 9.84375 -7.1875 "/></g></g></g><g fill="#ffffff" fill-opacity="1"><g transform="translate(89.280023, 19.188979)"><g><path d="M 10.75 0 L 9.015625 0 L 8.953125 -1.796875 C 8.617188 -1.410156 8.300781 -1.085938 8 -0.828125 C 7.695312 -0.578125 7.394531 -0.375 7.09375 -0.21875 C 6.800781 -0.0625 6.503906 0.046875 6.203125 0.109375 C 5.910156 0.171875 5.597656 0.203125 5.265625 0.203125 C 4.109375 0.203125 3.238281 -0.132812 2.65625 -0.8125 C 2.070312 -1.488281 1.78125 -2.507812 1.78125 -3.875 L 1.78125 -11.15625 L 3.71875 -11.15625 L 3.71875 -4.03125 C 3.71875 -2.3125 4.359375 -1.453125 5.640625 -1.453125 C 5.878906 -1.453125 6.113281 -1.488281 6.34375 -1.5625 C 6.570312 -1.632812 6.804688 -1.753906 7.046875 -1.921875 C 7.296875 -2.097656 7.5625 -2.332031 7.84375 -2.625 C 8.132812 -2.925781 8.457031 -3.300781 8.8125 -3.75 L 8.8125 -11.15625 L 10.75 -11.15625 Z M 10.75 0 "/></g></g></g><g fill="#ffffff" fill-opacity="1"><g transform="translate(101.794037, 19.188979)"><g><path d="M 5.578125 -9.5625 L 2.28125 -9.5625 L 2.28125 -11.15625 L 7.53125 -11.15625 L 7.53125 -1.609375 L 10.859375 -1.609375 L 10.859375 0 L 1.90625 0 L 1.90625 -1.609375 L 5.578125 -1.609375 Z M 6.265625 -15.84375 C 6.472656 -15.84375 6.671875 -15.800781 6.859375 -15.71875 C 7.046875 -15.644531 7.207031 -15.535156 7.34375 -15.390625 C 7.476562 -15.253906 7.582031 -15.09375 7.65625 -14.90625 C 7.738281 -14.726562 7.78125 -14.53125 7.78125 -14.3125 C 7.78125 -14.101562 7.738281 -13.90625 7.65625 -13.71875 C 7.582031 -13.539062 7.476562 -13.378906 7.34375 -13.234375 C 7.207031 -13.097656 7.046875 -12.988281 6.859375 -12.90625 C 6.671875 -12.832031 6.472656 -12.796875 6.265625 -12.796875 C 6.046875 -12.796875 5.84375 -12.832031 5.65625 -12.90625 C 5.46875 -12.988281 5.304688 -13.097656 5.171875 -13.234375 C 5.035156 -13.378906 4.925781 -13.539062 4.84375 -13.71875 C 4.769531 -13.90625 4.734375 -14.101562 4.734375 -14.3125 C 4.734375 -14.53125 4.769531 -14.726562 4.84375 -14.90625 C 4.925781 -15.09375 5.035156 -15.253906 5.171875 -15.390625 C 5.304688 -15.535156 5.46875 -15.644531 5.65625 -15.71875 C 5.84375 -15.800781 6.046875 -15.84375 6.265625 -15.84375 Z M 6.265625 -15.84375 "/></g></g></g><g fill="#ffffff" fill-opacity="1"><g transform="translate(114.308051, 19.188979)"><g><path d="M 10.8125 0 L 1.828125 0 L 1.828125 -1.390625 L 8.125 -9.53125 L 1.984375 -9.53125 L 1.984375 -11.15625 L 10.453125 -11.15625 L 10.453125 -9.65625 L 4.25 -1.640625 L 10.8125 -1.640625 Z M 10.8125 0 "/></g></g></g><g fill="#ffffff" fill-opacity="1"><g transform="translate(126.822066, 19.188979)"><g><path d="M 10.5 0 L 2.234375 0 L 2.234375 -14.53125 L 10.5 -14.53125 L 10.5 -12.859375 L 4.21875 -12.859375 L 4.21875 -8.359375 L 10.25 -8.359375 L 10.25 -6.6875 L 4.21875 -6.6875 L 4.21875 -1.6875 L 10.5 -1.6875 Z M 10.5 0 "/></g></g></g><g fill="#ffffff" fill-opacity="1"><g transform="translate(139.33608, 19.188979)"><g><path d="M 11.84375 0 L 9.265625 0 L 6.265625 -4.25 L 3.28125 0 L 0.78125 0 L 5.109375 -5.609375 L 0.984375 -11.15625 L 3.453125 -11.15625 L 6.390625 -6.875 L 9.265625 -11.15625 L 11.65625 -11.15625 L 7.46875 -5.5625 Z M 11.84375 0 "/></g></g></g><g fill="#ffffff" fill-opacity="1"><g transform="translate(151.850094, 19.188979)"><g><path d="M 8.953125 0 L 8.90625 -1.5 C 8.300781 -0.894531 7.679688 -0.457031 7.046875 -0.1875 C 6.421875 0.0703125 5.765625 0.203125 5.078125 0.203125 C 4.441406 0.203125 3.894531 0.125 3.4375 -0.03125 C 2.988281 -0.195312 2.617188 -0.421875 2.328125 -0.703125 C 2.035156 -0.992188 1.820312 -1.332031 1.6875 -1.71875 C 1.550781 -2.101562 1.484375 -2.523438 1.484375 -2.984375 C 1.484375 -4.097656 1.898438 -4.972656 2.734375 -5.609375 C 3.566406 -6.242188 4.796875 -6.5625 6.421875 -6.5625 L 8.734375 -6.5625 L 8.734375 -7.53125 C 8.734375 -8.195312 8.519531 -8.726562 8.09375 -9.125 C 7.675781 -9.519531 7.035156 -9.71875 6.171875 -9.71875 C 5.535156 -9.71875 4.910156 -9.644531 4.296875 -9.5 C 3.691406 -9.363281 3.0625 -9.164062 2.40625 -8.90625 L 2.40625 -10.65625 C 2.65625 -10.738281 2.925781 -10.820312 3.21875 -10.90625 C 3.519531 -10.988281 3.835938 -11.0625 4.171875 -11.125 C 4.515625 -11.195312 4.863281 -11.253906 5.21875 -11.296875 C 5.582031 -11.335938 5.953125 -11.359375 6.328125 -11.359375 C 7.003906 -11.359375 7.609375 -11.285156 8.140625 -11.140625 C 8.679688 -10.992188 9.140625 -10.765625 9.515625 -10.453125 C 9.890625 -10.148438 10.175781 -9.769531 10.375 -9.3125 C 10.582031 -8.851562 10.6875 -8.3125 10.6875 -7.6875 L 10.6875 0 Z M 8.734375 -5.078125 L 6.28125 -5.078125 C 5.800781 -5.078125 5.382812 -5.03125 5.03125 -4.9375 C 4.6875 -4.84375 4.398438 -4.703125 4.171875 -4.515625 C 3.953125 -4.335938 3.789062 -4.125 3.6875 -3.875 C 3.582031 -3.632812 3.53125 -3.359375 3.53125 -3.046875 C 3.53125 -2.828125 3.5625 -2.617188 3.625 -2.421875 C 3.6875 -2.234375 3.789062 -2.0625 3.9375 -1.90625 C 4.09375 -1.75 4.285156 -1.625 4.515625 -1.53125 C 4.753906 -1.445312 5.046875 -1.40625 5.390625 -1.40625 C 5.835938 -1.40625 6.347656 -1.539062 6.921875 -1.8125 C 7.492188 -2.082031 8.097656 -2.507812 8.734375 -3.09375 Z M 8.734375 -5.078125 "/></g></g></g><g fill="#ffffff" fill-opacity="1"><g transform="translate(164.364109, 19.188979)"><g><path d="M 9.734375 0 L 9.734375 -8.015625 C 9.734375 -8.359375 9.71875 -8.640625 9.6875 -8.859375 C 9.664062 -9.085938 9.628906 -9.265625 9.578125 -9.390625 C 9.523438 -9.523438 9.453125 -9.617188 9.359375 -9.671875 C 9.273438 -9.722656 9.171875 -9.75 9.046875 -9.75 C 8.898438 -9.75 8.765625 -9.703125 8.640625 -9.609375 C 8.515625 -9.523438 8.378906 -9.378906 8.234375 -9.171875 C 8.085938 -8.972656 7.925781 -8.707031 7.75 -8.375 C 7.582031 -8.050781 7.378906 -7.648438 7.140625 -7.171875 L 7.140625 0 L 5.375 0 L 5.375 -7.796875 C 5.375 -8.210938 5.359375 -8.546875 5.328125 -8.796875 C 5.304688 -9.046875 5.265625 -9.238281 5.203125 -9.375 C 5.148438 -9.519531 5.078125 -9.617188 4.984375 -9.671875 C 4.898438 -9.722656 4.796875 -9.75 4.671875 -9.75 C 4.535156 -9.75 4.40625 -9.710938 4.28125 -9.640625 C 4.164062 -9.566406 4.035156 -9.429688 3.890625 -9.234375 C 3.742188 -9.046875 3.582031 -8.785156 3.40625 -8.453125 C 3.226562 -8.117188 3.019531 -7.691406 2.78125 -7.171875 L 2.78125 0 L 1 0 L 1 -11.15625 L 2.484375 -11.15625 L 2.5625 -9.03125 C 2.757812 -9.457031 2.945312 -9.816406 3.125 -10.109375 C 3.3125 -10.410156 3.5 -10.648438 3.6875 -10.828125 C 3.882812 -11.015625 4.09375 -11.148438 4.3125 -11.234375 C 4.53125 -11.316406 4.769531 -11.359375 5.03125 -11.359375 C 5.632812 -11.359375 6.09375 -11.160156 6.40625 -10.765625 C 6.71875 -10.378906 6.875 -9.773438 6.875 -8.953125 C 7.050781 -9.335938 7.222656 -9.675781 7.390625 -9.96875 C 7.554688 -10.269531 7.738281 -10.519531 7.9375 -10.71875 C 8.132812 -10.925781 8.351562 -11.082031 8.59375 -11.1875 C 8.832031 -11.300781 9.109375 -11.359375 9.421875 -11.359375 C 10.816406 -11.359375 11.515625 -10.28125 11.515625 -8.125 L 11.515625 0 Z M 9.734375 0 "/></g></g></g><g clip-path="url(#aab8e93d19)"><path fill="#ffffff" d="M 189.550781 29.03125 C 189.246094 29.027344 188.945312 29 188.644531 28.9375 C 188.347656 28.878906 188.054688 28.792969 187.773438 28.675781 C 187.492188 28.558594 187.222656 28.414062 186.96875 28.246094 C 186.71875 28.074219 186.480469 27.882812 186.265625 27.667969 C 186.050781 27.449219 185.859375 27.214844 185.6875 26.960938 C 185.519531 26.710938 185.375 26.441406 185.257812 26.160156 C 185.140625 25.878906 185.054688 25.585938 184.996094 25.289062 C 184.933594 24.988281 184.90625 24.6875 184.902344 24.382812 L 184.902344 19.734375 C 184.902344 17.84375 183.984375 16.636719 183.355469 16.636719 C 183.148438 16.636719 182.953125 16.597656 182.761719 16.519531 C 182.574219 16.441406 182.40625 16.328125 182.257812 16.183594 C 182.113281 16.039062 182.003906 15.871094 181.921875 15.679688 C 181.84375 15.488281 181.804688 15.292969 181.804688 15.085938 C 181.804688 14.882812 181.84375 14.683594 181.921875 14.496094 C 182.003906 14.304688 182.113281 14.136719 182.257812 13.992188 C 182.40625 13.847656 182.574219 13.734375 182.761719 13.65625 C 182.953125 13.578125 183.148438 13.539062 183.355469 13.539062 C 183.984375 13.539062 184.902344 12.332031 184.902344 10.441406 L 184.902344 5.792969 C 184.90625 5.488281 184.933594 5.183594 184.996094 4.886719 C 185.054688 4.585938 185.140625 4.296875 185.257812 4.015625 C 185.375 3.734375 185.519531 3.464844 185.6875 3.210938 C 185.859375 2.957031 186.050781 2.722656 186.265625 2.507812 C 186.480469 2.292969 186.71875 2.097656 186.96875 1.929688 C 187.222656 1.761719 187.492188 1.617188 187.773438 1.5 C 188.054688 1.382812 188.347656 1.292969 188.644531 1.234375 C 188.945312 1.175781 189.246094 1.144531 189.550781 1.144531 C 189.757812 1.144531 189.953125 1.183594 190.144531 1.261719 C 190.335938 1.339844 190.5 1.453125 190.648438 1.597656 C 190.792969 1.742188 190.902344 1.910156 190.984375 2.101562 C 191.0625 2.289062 191.101562 2.488281 191.101562 2.695312 C 191.101562 2.898438 191.0625 3.097656 190.984375 3.285156 C 190.902344 3.476562 190.792969 3.644531 190.648438 3.789062 C 190.5 3.933594 190.335938 4.046875 190.144531 4.125 C 189.953125 4.203125 189.757812 4.242188 189.550781 4.242188 C 189.347656 4.242188 189.148438 4.28125 188.957031 4.359375 C 188.769531 4.441406 188.601562 4.550781 188.457031 4.695312 C 188.3125 4.84375 188.199219 5.007812 188.121094 5.199219 C 188.042969 5.390625 188.003906 5.585938 188.003906 5.792969 L 188.003906 10.441406 C 188.046875 12.175781 187.53125 13.722656 186.460938 15.085938 C 187.53125 16.449219 188.046875 18 188.003906 19.734375 L 188.003906 24.382812 C 188.003906 24.585938 188.042969 24.785156 188.121094 24.976562 C 188.199219 25.164062 188.3125 25.332031 188.457031 25.476562 C 188.601562 25.621094 188.769531 25.734375 188.957031 25.8125 C 189.148438 25.890625 189.347656 25.929688 189.550781 25.929688 C 189.757812 25.929688 189.953125 25.96875 190.144531 26.050781 C 190.335938 26.128906 190.5 26.238281 190.648438 26.386719 C 190.792969 26.53125 190.902344 26.699219 190.984375 26.886719 C 191.0625 27.078125 191.101562 27.273438 191.101562 27.480469 C 191.101562 27.6875 191.0625 27.882812 190.984375 28.074219 C 190.902344 28.261719 190.792969 28.429688 190.648438 28.574219 C 190.5 28.722656 190.335938 28.832031 190.144531 28.910156 C 189.953125 28.988281 189.757812 29.03125 189.550781 29.03125 Z M 189.550781 29.03125 " fill-opacity="1" fill-rule="nonzero"/></g><g clip-path="url(#fcba09dcc3)"><path fill="#ffffff" d="M 205.042969 29.03125 C 204.835938 29.03125 204.640625 28.988281 204.449219 28.910156 C 204.261719 28.832031 204.09375 28.722656 203.949219 28.574219 C 203.800781 28.429688 203.691406 28.261719 203.613281 28.074219 C 203.53125 27.882812 203.492188 27.6875 203.492188 27.480469 C 203.492188 27.273438 203.53125 27.078125 203.613281 26.886719 C 203.691406 26.699219 203.800781 26.53125 203.949219 26.386719 C 204.09375 26.238281 204.261719 26.128906 204.449219 26.050781 C 204.640625 25.96875 204.835938 25.929688 205.042969 25.929688 C 205.25 25.929688 205.445312 25.890625 205.636719 25.8125 C 205.824219 25.734375 205.992188 25.621094 206.136719 25.476562 C 206.285156 25.332031 206.394531 25.164062 206.472656 24.976562 C 206.554688 24.785156 206.59375 24.585938 206.59375 24.382812 L 206.59375 19.734375 C 206.546875 18 207.0625 16.449219 208.132812 15.085938 C 207.0625 13.722656 206.546875 12.175781 206.59375 10.441406 L 206.59375 5.792969 C 206.59375 5.585938 206.554688 5.390625 206.472656 5.199219 C 206.394531 5.007812 206.285156 4.84375 206.136719 4.695312 C 205.992188 4.550781 205.824219 4.441406 205.636719 4.359375 C 205.445312 4.28125 205.25 4.242188 205.042969 4.242188 C 204.835938 4.242188 204.640625 4.203125 204.449219 4.125 C 204.261719 4.046875 204.09375 3.933594 203.949219 3.789062 C 203.800781 3.644531 203.691406 3.476562 203.613281 3.285156 C 203.53125 3.097656 203.492188 2.898438 203.492188 2.695312 C 203.492188 2.488281 203.53125 2.289062 203.613281 2.101562 C 203.691406 1.910156 203.800781 1.742188 203.949219 1.597656 C 204.09375 1.453125 204.261719 1.339844 204.449219 1.261719 C 204.640625 1.183594 204.835938 1.144531 205.042969 1.144531 C 205.347656 1.144531 205.648438 1.175781 205.949219 1.234375 C 206.25 1.292969 206.539062 1.382812 206.820312 1.5 C 207.101562 1.617188 207.371094 1.761719 207.625 1.929688 C 207.878906 2.097656 208.113281 2.292969 208.328125 2.507812 C 208.542969 2.722656 208.734375 2.957031 208.90625 3.210938 C 209.074219 3.464844 209.21875 3.734375 209.335938 4.015625 C 209.453125 4.296875 209.539062 4.585938 209.601562 4.886719 C 209.660156 5.183594 209.691406 5.488281 209.691406 5.792969 L 209.691406 10.441406 C 209.691406 12.332031 210.609375 13.539062 211.238281 13.539062 C 211.445312 13.539062 211.644531 13.578125 211.832031 13.65625 C 212.023438 13.734375 212.191406 13.847656 212.335938 13.992188 C 212.480469 14.136719 212.59375 14.304688 212.671875 14.496094 C 212.75 14.683594 212.789062 14.882812 212.789062 15.085938 C 212.789062 15.292969 212.75 15.488281 212.671875 15.679688 C 212.59375 15.871094 212.480469 16.039062 212.335938 16.183594 C 212.191406 16.328125 212.023438 16.441406 211.832031 16.519531 C 211.644531 16.597656 211.445312 16.636719 211.238281 16.636719 C 210.609375 16.636719 209.691406 17.84375 209.691406 19.734375 L 209.691406 24.382812 C 209.691406 24.6875 209.660156 24.988281 209.601562 25.289062 C 209.539062 25.585938 209.453125 25.878906 209.335938 26.160156 C 209.21875 26.441406 209.074219 26.710938 208.90625 26.960938 C 208.734375 27.214844 208.542969 27.449219 208.328125 27.667969 C 208.113281 27.882812 207.878906 28.074219 207.625 28.246094 C 207.371094 28.414062 207.101562 28.558594 206.820312 28.675781 C 206.539062 28.792969 206.25 28.878906 205.949219 28.9375 C 205.648438 29 205.347656 29.027344 205.042969 29.03125 Z M 205.042969 29.03125 " fill-opacity="1" fill-rule="nonzero"/></g><g clip-path="url(#1581da3949)"><path fill="#ffffff" d="M 201.675781 9.152344 C 202.53125 9.152344 203.226562 9.847656 203.226562 10.703125 L 203.226562 19.464844 C 203.226562 20.316406 202.53125 21.011719 201.675781 21.011719 L 192.914062 21.011719 C 192.058594 21.011719 191.363281 20.316406 191.363281 19.464844 L 191.363281 10.703125 C 191.363281 9.847656 192.058594 9.152344 192.914062 9.152344 L 201.675781 9.152344 M 201.675781 8.074219 L 192.914062 8.074219 C 191.460938 8.074219 190.285156 9.25 190.285156 10.703125 L 190.285156 19.464844 C 190.285156 20.914062 191.460938 22.089844 192.914062 22.089844 L 201.675781 22.089844 C 203.125 22.089844 204.304688 20.914062 204.304688 19.464844 L 204.304688 10.703125 C 204.304688 9.25 203.128906 8.074219 201.675781 8.074219 Z M 201.675781 8.074219 " fill-opacity="1" fill-rule="nonzero"/></g><path fill="#ffffff" d="M 201.875 11.238281 L 201.015625 10.652344 C 200.777344 10.492188 200.453125 10.554688 200.292969 10.792969 L 196.074219 17.011719 L 194.136719 15.074219 C 193.933594 14.871094 193.601562 14.871094 193.398438 15.074219 L 192.664062 15.8125 C 192.460938 16.011719 192.460938 16.34375 192.664062 16.546875 L 195.644531 19.527344 C 195.8125 19.695312 196.074219 19.824219 196.308594 19.824219 C 196.546875 19.824219 196.785156 19.671875 196.9375 19.449219 L 202.015625 11.960938 C 202.175781 11.726562 202.113281 11.398438 201.875 11.238281 Z M 201.875 11.238281 " fill-opacity="1" fill-rule="nonzero"/></svg>