<svg xmlns="http://www.w3.org/2000/svg" xmlns:xlink="http://www.w3.org/1999/xlink" width="350" zoomAndPan="magnify" viewBox="0 0 262.5 30.000001" height="40" preserveAspectRatio="xMidYMid meet" version="1.0"><defs><g/><clipPath id="bc7105e565"><path d="M 181.394531 0.621094 L 191 0.621094 L 191 28.203125 L 181.394531 28.203125 Z M 181.394531 0.621094 " clip-rule="nonzero"/></clipPath><clipPath id="d620413c89"><path d="M 203 0.621094 L 212.605469 0.621094 L 212.605469 28.203125 L 203 28.203125 Z M 203 0.621094 " clip-rule="nonzero"/></clipPath><clipPath id="69c4bd781c"><path d="M 188.921875 5.097656 L 204.886719 5.097656 L 204.886719 23.96875 L 188.921875 23.96875 Z M 188.921875 5.097656 " clip-rule="nonzero"/></clipPath></defs><g fill="#ffffff" fill-opacity="1"><g transform="translate(26.709951, 19.238912)"><g><path d="M 11.6875 -13.90625 C 10.664062 -14.125 9.789062 -14.234375 9.0625 -14.234375 C 7.320312 -14.234375 6.453125 -13.320312 6.453125 -11.5 L 6.453125 -9.53125 L 11.34375 -9.53125 L 11.34375 -7.921875 L 6.453125 -7.921875 L 6.453125 0 L 4.484375 0 L 4.484375 -7.921875 L 0.890625 -7.921875 L 0.890625 -9.53125 L 4.484375 -9.53125 L 4.484375 -11.390625 C 4.484375 -14.359375 6.03125 -15.84375 9.125 -15.84375 C 9.894531 -15.84375 10.75 -15.753906 11.6875 -15.578125 Z M 0 -11.15625 Z M 0 -11.15625 "/></g></g></g><g fill="#ffffff" fill-opacity="1"><g transform="translate(39.223965, 19.238912)"><g><path d="M 2.234375 -11.15625 L 4 -11.15625 L 4.0625 -9.109375 C 4.71875 -9.898438 5.363281 -10.472656 6 -10.828125 C 6.644531 -11.179688 7.296875 -11.359375 7.953125 -11.359375 C 9.109375 -11.359375 9.984375 -10.984375 10.578125 -10.234375 C 11.171875 -9.484375 11.445312 -8.375 11.40625 -6.90625 L 9.453125 -6.90625 C 9.472656 -7.882812 9.328125 -8.59375 9.015625 -9.03125 C 8.710938 -9.46875 8.265625 -9.6875 7.671875 -9.6875 C 7.410156 -9.6875 7.144531 -9.640625 6.875 -9.546875 C 6.613281 -9.460938 6.34375 -9.316406 6.0625 -9.109375 C 5.789062 -8.898438 5.5 -8.632812 5.1875 -8.3125 C 4.875 -8 4.539062 -7.617188 4.1875 -7.171875 L 4.1875 0 L 2.234375 0 Z M 2.234375 -11.15625 "/></g></g></g><g fill="#ffffff" fill-opacity="1"><g transform="translate(51.73798, 19.238912)"><g><path d="M 11.203125 -6.171875 C 11.203125 -5.898438 11.195312 -5.671875 11.1875 -5.484375 C 11.1875 -5.296875 11.175781 -5.117188 11.15625 -4.953125 L 3.328125 -4.953125 C 3.328125 -3.816406 3.644531 -2.941406 4.28125 -2.328125 C 4.914062 -1.710938 5.832031 -1.40625 7.03125 -1.40625 C 7.363281 -1.40625 7.691406 -1.414062 8.015625 -1.4375 C 8.335938 -1.46875 8.648438 -1.503906 8.953125 -1.546875 C 9.265625 -1.597656 9.554688 -1.648438 9.828125 -1.703125 C 10.109375 -1.765625 10.367188 -1.828125 10.609375 -1.890625 L 10.609375 -0.296875 C 10.078125 -0.148438 9.476562 -0.03125 8.8125 0.0625 C 8.15625 0.15625 7.472656 0.203125 6.765625 0.203125 C 5.804688 0.203125 4.976562 0.0703125 4.28125 -0.1875 C 3.59375 -0.445312 3.03125 -0.820312 2.59375 -1.3125 C 2.15625 -1.8125 1.828125 -2.414062 1.609375 -3.125 C 1.398438 -3.84375 1.296875 -4.65625 1.296875 -5.5625 C 1.296875 -6.34375 1.410156 -7.082031 1.640625 -7.78125 C 1.867188 -8.488281 2.195312 -9.101562 2.625 -9.625 C 3.0625 -10.15625 3.59375 -10.578125 4.21875 -10.890625 C 4.851562 -11.203125 5.570312 -11.359375 6.375 -11.359375 C 7.144531 -11.359375 7.832031 -11.234375 8.4375 -10.984375 C 9.039062 -10.742188 9.546875 -10.398438 9.953125 -9.953125 C 10.367188 -9.503906 10.679688 -8.957031 10.890625 -8.3125 C 11.097656 -7.675781 11.203125 -6.960938 11.203125 -6.171875 Z M 9.1875 -6.453125 C 9.207031 -6.941406 9.160156 -7.390625 9.046875 -7.796875 C 8.929688 -8.210938 8.75 -8.566406 8.5 -8.859375 C 8.25 -9.160156 7.9375 -9.394531 7.5625 -9.5625 C 7.195312 -9.726562 6.769531 -9.8125 6.28125 -9.8125 C 5.851562 -9.8125 5.46875 -9.726562 5.125 -9.5625 C 4.78125 -9.40625 4.476562 -9.175781 4.21875 -8.875 C 3.96875 -8.582031 3.765625 -8.226562 3.609375 -7.8125 C 3.453125 -7.394531 3.359375 -6.941406 3.328125 -6.453125 Z M 9.1875 -6.453125 "/></g></g></g><g fill="#ffffff" fill-opacity="1"><g transform="translate(64.251994, 19.238912)"><g><path d="M 11.203125 -6.171875 C 11.203125 -5.898438 11.195312 -5.671875 11.1875 -5.484375 C 11.1875 -5.296875 11.175781 -5.117188 11.15625 -4.953125 L 3.328125 -4.953125 C 3.328125 -3.816406 3.644531 -2.941406 4.28125 -2.328125 C 4.914062 -1.710938 5.832031 -1.40625 7.03125 -1.40625 C 7.363281 -1.40625 7.691406 -1.414062 8.015625 -1.4375 C 8.335938 -1.46875 8.648438 -1.503906 8.953125 -1.546875 C 9.265625 -1.597656 9.554688 -1.648438 9.828125 -1.703125 C 10.109375 -1.765625 10.367188 -1.828125 10.609375 -1.890625 L 10.609375 -0.296875 C 10.078125 -0.148438 9.476562 -0.03125 8.8125 0.0625 C 8.15625 0.15625 7.472656 0.203125 6.765625 0.203125 C 5.804688 0.203125 4.976562 0.0703125 4.28125 -0.1875 C 3.59375 -0.445312 3.03125 -0.820312 2.59375 -1.3125 C 2.15625 -1.8125 1.828125 -2.414062 1.609375 -3.125 C 1.398438 -3.84375 1.296875 -4.65625 1.296875 -5.5625 C 1.296875 -6.34375 1.410156 -7.082031 1.640625 -7.78125 C 1.867188 -8.488281 2.195312 -9.101562 2.625 -9.625 C 3.0625 -10.15625 3.59375 -10.578125 4.21875 -10.890625 C 4.851562 -11.203125 5.570312 -11.359375 6.375 -11.359375 C 7.144531 -11.359375 7.832031 -11.234375 8.4375 -10.984375 C 9.039062 -10.742188 9.546875 -10.398438 9.953125 -9.953125 C 10.367188 -9.503906 10.679688 -8.957031 10.890625 -8.3125 C 11.097656 -7.675781 11.203125 -6.960938 11.203125 -6.171875 Z M 9.1875 -6.453125 C 9.207031 -6.941406 9.160156 -7.390625 9.046875 -7.796875 C 8.929688 -8.210938 8.75 -8.566406 8.5 -8.859375 C 8.25 -9.160156 7.9375 -9.394531 7.5625 -9.5625 C 7.195312 -9.726562 6.769531 -9.8125 6.28125 -9.8125 C 5.851562 -9.8125 5.46875 -9.726562 5.125 -9.5625 C 4.78125 -9.40625 4.476562 -9.175781 4.21875 -8.875 C 3.96875 -8.582031 3.765625 -8.226562 3.609375 -7.8125 C 3.453125 -7.394531 3.359375 -6.941406 3.328125 -6.453125 Z M 9.1875 -6.453125 "/></g></g></g><g fill="#ffffff" fill-opacity="1"><g transform="translate(76.766008, 19.238912)"><g><path d="M 5.1875 0.140625 C 4.414062 0.0234375 3.742188 -0.21875 3.171875 -0.59375 C 2.609375 -0.976562 2.132812 -1.476562 1.75 -2.09375 C 1.375 -2.71875 1.09375 -3.445312 0.90625 -4.28125 C 0.726562 -5.125 0.640625 -6.054688 0.640625 -7.078125 C 0.640625 -8.398438 0.789062 -9.539062 1.09375 -10.5 C 1.394531 -11.46875 1.804688 -12.265625 2.328125 -12.890625 C 2.847656 -13.515625 3.457031 -13.976562 4.15625 -14.28125 C 4.851562 -14.582031 5.59375 -14.734375 6.375 -14.734375 C 7.300781 -14.734375 8.109375 -14.5625 8.796875 -14.21875 C 9.492188 -13.882812 10.070312 -13.398438 10.53125 -12.765625 C 11 -12.128906 11.34375 -11.359375 11.5625 -10.453125 C 11.789062 -9.554688 11.90625 -8.546875 11.90625 -7.421875 C 11.90625 -6.234375 11.78125 -5.191406 11.53125 -4.296875 C 11.28125 -3.410156 10.9375 -2.65625 10.5 -2.03125 C 10.0625 -1.40625 9.546875 -0.914062 8.953125 -0.5625 C 8.359375 -0.207031 7.71875 0.0234375 7.03125 0.140625 C 7.144531 0.785156 7.40625 1.304688 7.8125 1.703125 C 8.21875 2.097656 8.789062 2.296875 9.53125 2.296875 C 9.894531 2.296875 10.25 2.234375 10.59375 2.109375 C 10.9375 1.992188 11.285156 1.796875 11.640625 1.515625 L 12.515625 2.890625 C 12.023438 3.285156 11.519531 3.566406 11 3.734375 C 10.488281 3.910156 9.957031 4 9.40625 4 C 8.8125 4 8.265625 3.914062 7.765625 3.75 C 7.273438 3.59375 6.84375 3.351562 6.46875 3.03125 C 6.101562 2.707031 5.8125 2.300781 5.59375 1.8125 C 5.375 1.332031 5.238281 0.773438 5.1875 0.140625 Z M 9.84375 -7.1875 C 9.84375 -8.050781 9.773438 -8.835938 9.640625 -9.546875 C 9.515625 -10.253906 9.304688 -10.859375 9.015625 -11.359375 C 8.734375 -11.867188 8.363281 -12.265625 7.90625 -12.546875 C 7.445312 -12.828125 6.898438 -12.96875 6.265625 -12.96875 C 5.640625 -12.96875 5.101562 -12.816406 4.65625 -12.515625 C 4.207031 -12.222656 3.835938 -11.820312 3.546875 -11.3125 C 3.253906 -10.8125 3.035156 -10.222656 2.890625 -9.546875 C 2.753906 -8.867188 2.6875 -8.144531 2.6875 -7.375 C 2.6875 -6.5 2.753906 -5.703125 2.890625 -4.984375 C 3.023438 -4.265625 3.234375 -3.648438 3.515625 -3.140625 C 3.804688 -2.628906 4.175781 -2.234375 4.625 -1.953125 C 5.070312 -1.679688 5.617188 -1.546875 6.265625 -1.546875 C 6.878906 -1.546875 7.410156 -1.691406 7.859375 -1.984375 C 8.316406 -2.285156 8.691406 -2.691406 8.984375 -3.203125 C 9.273438 -3.710938 9.488281 -4.3125 9.625 -5 C 9.769531 -5.6875 9.84375 -6.414062 9.84375 -7.1875 Z M 9.84375 -7.1875 "/></g></g></g><g fill="#ffffff" fill-opacity="1"><g transform="translate(89.280023, 19.238912)"><g><path d="M 10.75 0 L 9.015625 0 L 8.953125 -1.796875 C 8.617188 -1.410156 8.300781 -1.085938 8 -0.828125 C 7.695312 -0.578125 7.394531 -0.375 7.09375 -0.21875 C 6.800781 -0.0625 6.503906 0.046875 6.203125 0.109375 C 5.910156 0.171875 5.597656 0.203125 5.265625 0.203125 C 4.109375 0.203125 3.238281 -0.132812 2.65625 -0.8125 C 2.070312 -1.488281 1.78125 -2.507812 1.78125 -3.875 L 1.78125 -11.15625 L 3.71875 -11.15625 L 3.71875 -4.03125 C 3.71875 -2.3125 4.359375 -1.453125 5.640625 -1.453125 C 5.878906 -1.453125 6.113281 -1.488281 6.34375 -1.5625 C 6.570312 -1.632812 6.804688 -1.753906 7.046875 -1.921875 C 7.296875 -2.097656 7.5625 -2.332031 7.84375 -2.625 C 8.132812 -2.925781 8.457031 -3.300781 8.8125 -3.75 L 8.8125 -11.15625 L 10.75 -11.15625 Z M 10.75 0 "/></g></g></g><g fill="#ffffff" fill-opacity="1"><g transform="translate(101.794037, 19.238912)"><g><path d="M 5.578125 -9.5625 L 2.28125 -9.5625 L 2.28125 -11.15625 L 7.53125 -11.15625 L 7.53125 -1.609375 L 10.859375 -1.609375 L 10.859375 0 L 1.90625 0 L 1.90625 -1.609375 L 5.578125 -1.609375 Z M 6.265625 -15.84375 C 6.472656 -15.84375 6.671875 -15.800781 6.859375 -15.71875 C 7.046875 -15.644531 7.207031 -15.535156 7.34375 -15.390625 C 7.476562 -15.253906 7.582031 -15.09375 7.65625 -14.90625 C 7.738281 -14.726562 7.78125 -14.53125 7.78125 -14.3125 C 7.78125 -14.101562 7.738281 -13.90625 7.65625 -13.71875 C 7.582031 -13.539062 7.476562 -13.378906 7.34375 -13.234375 C 7.207031 -13.097656 7.046875 -12.988281 6.859375 -12.90625 C 6.671875 -12.832031 6.472656 -12.796875 6.265625 -12.796875 C 6.046875 -12.796875 5.84375 -12.832031 5.65625 -12.90625 C 5.46875 -12.988281 5.304688 -13.097656 5.171875 -13.234375 C 5.035156 -13.378906 4.925781 -13.539062 4.84375 -13.71875 C 4.769531 -13.90625 4.734375 -14.101562 4.734375 -14.3125 C 4.734375 -14.53125 4.769531 -14.726562 4.84375 -14.90625 C 4.925781 -15.09375 5.035156 -15.253906 5.171875 -15.390625 C 5.304688 -15.535156 5.46875 -15.644531 5.65625 -15.71875 C 5.84375 -15.800781 6.046875 -15.84375 6.265625 -15.84375 Z M 6.265625 -15.84375 "/></g></g></g><g fill="#ffffff" fill-opacity="1"><g transform="translate(114.308051, 19.238912)"><g><path d="M 10.8125 0 L 1.828125 0 L 1.828125 -1.390625 L 8.125 -9.53125 L 1.984375 -9.53125 L 1.984375 -11.15625 L 10.453125 -11.15625 L 10.453125 -9.65625 L 4.25 -1.640625 L 10.8125 -1.640625 Z M 10.8125 0 "/></g></g></g><g fill="#ffffff" fill-opacity="1"><g transform="translate(126.822066, 19.238912)"><g><path d="M 10.5 0 L 2.234375 0 L 2.234375 -14.53125 L 10.5 -14.53125 L 10.5 -12.859375 L 4.21875 -12.859375 L 4.21875 -8.359375 L 10.25 -8.359375 L 10.25 -6.6875 L 4.21875 -6.6875 L 4.21875 -1.6875 L 10.5 -1.6875 Z M 10.5 0 "/></g></g></g><g fill="#ffffff" fill-opacity="1"><g transform="translate(139.33608, 19.238912)"><g><path d="M 11.84375 0 L 9.265625 0 L 6.265625 -4.25 L 3.28125 0 L 0.78125 0 L 5.109375 -5.609375 L 0.984375 -11.15625 L 3.453125 -11.15625 L 6.390625 -6.875 L 9.265625 -11.15625 L 11.65625 -11.15625 L 7.46875 -5.5625 Z M 11.84375 0 "/></g></g></g><g fill="#ffffff" fill-opacity="1"><g transform="translate(151.850094, 19.238912)"><g><path d="M 8.953125 0 L 8.90625 -1.5 C 8.300781 -0.894531 7.679688 -0.457031 7.046875 -0.1875 C 6.421875 0.0703125 5.765625 0.203125 5.078125 0.203125 C 4.441406 0.203125 3.894531 0.125 3.4375 -0.03125 C 2.988281 -0.195312 2.617188 -0.421875 2.328125 -0.703125 C 2.035156 -0.992188 1.820312 -1.332031 1.6875 -1.71875 C 1.550781 -2.101562 1.484375 -2.523438 1.484375 -2.984375 C 1.484375 -4.097656 1.898438 -4.972656 2.734375 -5.609375 C 3.566406 -6.242188 4.796875 -6.5625 6.421875 -6.5625 L 8.734375 -6.5625 L 8.734375 -7.53125 C 8.734375 -8.195312 8.519531 -8.726562 8.09375 -9.125 C 7.675781 -9.519531 7.035156 -9.71875 6.171875 -9.71875 C 5.535156 -9.71875 4.910156 -9.644531 4.296875 -9.5 C 3.691406 -9.363281 3.0625 -9.164062 2.40625 -8.90625 L 2.40625 -10.65625 C 2.65625 -10.738281 2.925781 -10.820312 3.21875 -10.90625 C 3.519531 -10.988281 3.835938 -11.0625 4.171875 -11.125 C 4.515625 -11.195312 4.863281 -11.253906 5.21875 -11.296875 C 5.582031 -11.335938 5.953125 -11.359375 6.328125 -11.359375 C 7.003906 -11.359375 7.609375 -11.285156 8.140625 -11.140625 C 8.679688 -10.992188 9.140625 -10.765625 9.515625 -10.453125 C 9.890625 -10.148438 10.175781 -9.769531 10.375 -9.3125 C 10.582031 -8.851562 10.6875 -8.3125 10.6875 -7.6875 L 10.6875 0 Z M 8.734375 -5.078125 L 6.28125 -5.078125 C 5.800781 -5.078125 5.382812 -5.03125 5.03125 -4.9375 C 4.6875 -4.84375 4.398438 -4.703125 4.171875 -4.515625 C 3.953125 -4.335938 3.789062 -4.125 3.6875 -3.875 C 3.582031 -3.632812 3.53125 -3.359375 3.53125 -3.046875 C 3.53125 -2.828125 3.5625 -2.617188 3.625 -2.421875 C 3.6875 -2.234375 3.789062 -2.0625 3.9375 -1.90625 C 4.09375 -1.75 4.285156 -1.625 4.515625 -1.53125 C 4.753906 -1.445312 5.046875 -1.40625 5.390625 -1.40625 C 5.835938 -1.40625 6.347656 -1.539062 6.921875 -1.8125 C 7.492188 -2.082031 8.097656 -2.507812 8.734375 -3.09375 Z M 8.734375 -5.078125 "/></g></g></g><g fill="#ffffff" fill-opacity="1"><g transform="translate(164.364109, 19.238912)"><g><path d="M 9.734375 0 L 9.734375 -8.015625 C 9.734375 -8.359375 9.71875 -8.640625 9.6875 -8.859375 C 9.664062 -9.085938 9.628906 -9.265625 9.578125 -9.390625 C 9.523438 -9.523438 9.453125 -9.617188 9.359375 -9.671875 C 9.273438 -9.722656 9.171875 -9.75 9.046875 -9.75 C 8.898438 -9.75 8.765625 -9.703125 8.640625 -9.609375 C 8.515625 -9.523438 8.378906 -9.378906 8.234375 -9.171875 C 8.085938 -8.972656 7.925781 -8.707031 7.75 -8.375 C 7.582031 -8.050781 7.378906 -7.648438 7.140625 -7.171875 L 7.140625 0 L 5.375 0 L 5.375 -7.796875 C 5.375 -8.210938 5.359375 -8.546875 5.328125 -8.796875 C 5.304688 -9.046875 5.265625 -9.238281 5.203125 -9.375 C 5.148438 -9.519531 5.078125 -9.617188 4.984375 -9.671875 C 4.898438 -9.722656 4.796875 -9.75 4.671875 -9.75 C 4.535156 -9.75 4.40625 -9.710938 4.28125 -9.640625 C 4.164062 -9.566406 4.035156 -9.429688 3.890625 -9.234375 C 3.742188 -9.046875 3.582031 -8.785156 3.40625 -8.453125 C 3.226562 -8.117188 3.019531 -7.691406 2.78125 -7.171875 L 2.78125 0 L 1 0 L 1 -11.15625 L 2.484375 -11.15625 L 2.5625 -9.03125 C 2.757812 -9.457031 2.945312 -9.816406 3.125 -10.109375 C 3.3125 -10.410156 3.5 -10.648438 3.6875 -10.828125 C 3.882812 -11.015625 4.09375 -11.148438 4.3125 -11.234375 C 4.53125 -11.316406 4.769531 -11.359375 5.03125 -11.359375 C 5.632812 -11.359375 6.09375 -11.160156 6.40625 -10.765625 C 6.71875 -10.378906 6.875 -9.773438 6.875 -8.953125 C 7.050781 -9.335938 7.222656 -9.675781 7.390625 -9.96875 C 7.554688 -10.269531 7.738281 -10.519531 7.9375 -10.71875 C 8.132812 -10.925781 8.351562 -11.082031 8.59375 -11.1875 C 8.832031 -11.300781 9.109375 -11.359375 9.421875 -11.359375 C 10.816406 -11.359375 11.515625 -10.28125 11.515625 -8.125 L 11.515625 0 Z M 9.734375 0 "/></g></g></g><g clip-path="url(#bc7105e565)"><path fill="#ffffff" d="M 189.113281 28.40625 C 188.808594 28.40625 188.507812 28.375 188.210938 28.316406 C 187.910156 28.257812 187.621094 28.167969 187.34375 28.050781 C 187.0625 27.933594 186.792969 27.792969 186.542969 27.625 C 186.289062 27.453125 186.054688 27.261719 185.839844 27.046875 C 185.625 26.832031 185.433594 26.597656 185.265625 26.347656 C 185.09375 26.09375 184.953125 25.828125 184.835938 25.546875 C 184.71875 25.265625 184.632812 24.976562 184.574219 24.679688 C 184.511719 24.378906 184.484375 24.078125 184.484375 23.773438 L 184.484375 19.144531 C 184.484375 17.261719 183.566406 16.058594 182.9375 16.058594 C 182.734375 16.058594 182.539062 16.019531 182.347656 15.941406 C 182.160156 15.863281 181.992188 15.75 181.847656 15.605469 C 181.703125 15.460938 181.589844 15.292969 181.511719 15.105469 C 181.433594 14.914062 181.394531 14.71875 181.394531 14.515625 C 181.394531 14.308594 181.433594 14.113281 181.511719 13.921875 C 181.589844 13.734375 181.703125 13.566406 181.847656 13.421875 C 181.992188 13.277344 182.160156 13.167969 182.347656 13.089844 C 182.539062 13.011719 182.734375 12.96875 182.9375 12.96875 C 183.566406 12.96875 184.484375 11.765625 184.484375 9.882812 L 184.484375 5.253906 C 184.484375 4.949219 184.511719 4.648438 184.574219 4.351562 C 184.632812 4.050781 184.71875 3.761719 184.835938 3.480469 C 184.953125 3.203125 185.09375 2.933594 185.265625 2.683594 C 185.433594 2.429688 185.625 2.195312 185.839844 1.980469 C 186.054688 1.765625 186.289062 1.574219 186.542969 1.40625 C 186.792969 1.234375 187.0625 1.09375 187.34375 0.976562 C 187.621094 0.859375 187.910156 0.773438 188.210938 0.710938 C 188.507812 0.652344 188.808594 0.625 189.113281 0.621094 C 189.316406 0.621094 189.515625 0.660156 189.703125 0.742188 C 189.894531 0.820312 190.058594 0.929688 190.203125 1.074219 C 190.347656 1.21875 190.460938 1.386719 190.539062 1.574219 C 190.617188 1.765625 190.65625 1.960938 190.65625 2.167969 C 190.65625 2.371094 190.617188 2.566406 190.539062 2.757812 C 190.460938 2.945312 190.347656 3.113281 190.203125 3.257812 C 190.058594 3.402344 189.894531 3.515625 189.703125 3.59375 C 189.515625 3.671875 189.316406 3.710938 189.113281 3.710938 C 188.910156 3.710938 188.710938 3.75 188.523438 3.828125 C 188.332031 3.90625 188.167969 4.015625 188.023438 4.160156 C 187.878906 4.308594 187.765625 4.472656 187.6875 4.664062 C 187.609375 4.851562 187.570312 5.046875 187.570312 5.253906 L 187.570312 9.882812 C 187.613281 11.613281 187.101562 13.15625 186.03125 14.515625 C 187.101562 15.871094 187.613281 17.417969 187.570312 19.144531 L 187.570312 23.773438 C 187.570312 23.980469 187.609375 24.175781 187.6875 24.367188 C 187.765625 24.554688 187.878906 24.722656 188.023438 24.867188 C 188.167969 25.011719 188.332031 25.121094 188.523438 25.199219 C 188.710938 25.28125 188.910156 25.320312 189.113281 25.320312 C 189.316406 25.320312 189.515625 25.359375 189.703125 25.4375 C 189.894531 25.515625 190.058594 25.625 190.203125 25.769531 C 190.347656 25.914062 190.460938 26.082031 190.539062 26.269531 C 190.617188 26.460938 190.65625 26.65625 190.65625 26.863281 C 190.65625 27.066406 190.617188 27.261719 190.539062 27.453125 C 190.460938 27.640625 190.347656 27.808594 190.203125 27.953125 C 190.058594 28.097656 189.894531 28.210938 189.703125 28.289062 C 189.515625 28.367188 189.316406 28.40625 189.113281 28.40625 Z M 189.113281 28.40625 " fill-opacity="1" fill-rule="nonzero"/></g><g clip-path="url(#d620413c89)"><path fill="#ffffff" d="M 204.546875 28.40625 C 204.34375 28.40625 204.144531 28.367188 203.957031 28.289062 C 203.769531 28.210938 203.601562 28.097656 203.457031 27.953125 C 203.3125 27.808594 203.199219 27.640625 203.121094 27.453125 C 203.042969 27.261719 203.003906 27.066406 203.003906 26.863281 C 203.003906 26.65625 203.042969 26.460938 203.121094 26.269531 C 203.199219 26.082031 203.3125 25.914062 203.457031 25.769531 C 203.601562 25.625 203.769531 25.515625 203.957031 25.4375 C 204.144531 25.359375 204.34375 25.320312 204.546875 25.320312 C 204.753906 25.320312 204.949219 25.28125 205.136719 25.199219 C 205.328125 25.121094 205.496094 25.011719 205.640625 24.867188 C 205.785156 24.722656 205.894531 24.554688 205.972656 24.367188 C 206.050781 24.175781 206.089844 23.980469 206.089844 23.773438 L 206.089844 19.144531 C 206.046875 17.417969 206.558594 15.871094 207.628906 14.515625 C 206.558594 13.15625 206.046875 11.613281 206.089844 9.882812 L 206.089844 5.253906 C 206.089844 5.046875 206.050781 4.851562 205.972656 4.664062 C 205.894531 4.472656 205.785156 4.308594 205.640625 4.160156 C 205.496094 4.015625 205.328125 3.90625 205.136719 3.828125 C 204.949219 3.75 204.753906 3.710938 204.546875 3.710938 C 204.34375 3.710938 204.144531 3.671875 203.957031 3.59375 C 203.769531 3.515625 203.601562 3.402344 203.457031 3.257812 C 203.3125 3.113281 203.199219 2.945312 203.121094 2.757812 C 203.042969 2.566406 203.003906 2.371094 203.003906 2.167969 C 203.003906 1.960938 203.042969 1.765625 203.121094 1.574219 C 203.199219 1.386719 203.3125 1.21875 203.457031 1.074219 C 203.601562 0.929688 203.769531 0.820312 203.957031 0.742188 C 204.144531 0.660156 204.34375 0.621094 204.546875 0.621094 C 204.851562 0.625 205.152344 0.652344 205.449219 0.710938 C 205.75 0.773438 206.039062 0.859375 206.320312 0.976562 C 206.601562 1.09375 206.867188 1.234375 207.121094 1.40625 C 207.371094 1.574219 207.605469 1.765625 207.820312 1.980469 C 208.035156 2.195312 208.226562 2.429688 208.398438 2.683594 C 208.566406 2.933594 208.707031 3.203125 208.824219 3.480469 C 208.941406 3.761719 209.027344 4.050781 209.089844 4.351562 C 209.148438 4.648438 209.179688 4.949219 209.179688 5.253906 L 209.179688 9.882812 C 209.179688 11.765625 210.09375 12.96875 210.722656 12.96875 C 210.925781 12.96875 211.125 13.011719 211.3125 13.089844 C 211.5 13.167969 211.667969 13.277344 211.8125 13.421875 C 211.957031 13.566406 212.070312 13.734375 212.148438 13.921875 C 212.226562 14.113281 212.265625 14.308594 212.265625 14.515625 C 212.265625 14.71875 212.226562 14.914062 212.148438 15.105469 C 212.070312 15.292969 211.957031 15.460938 211.8125 15.605469 C 211.667969 15.75 211.5 15.863281 211.3125 15.941406 C 211.125 16.019531 210.925781 16.058594 210.722656 16.058594 C 210.09375 16.058594 209.179688 17.261719 209.179688 19.144531 L 209.179688 23.773438 C 209.179688 24.078125 209.148438 24.378906 209.089844 24.679688 C 209.027344 24.976562 208.941406 25.265625 208.824219 25.546875 C 208.707031 25.828125 208.566406 26.09375 208.398438 26.347656 C 208.226562 26.597656 208.035156 26.832031 207.820312 27.046875 C 207.605469 27.261719 207.371094 27.453125 207.121094 27.625 C 206.867188 27.792969 206.601562 27.933594 206.320312 28.050781 C 206.039062 28.167969 205.75 28.257812 205.449219 28.316406 C 205.152344 28.375 204.851562 28.40625 204.546875 28.40625 Z M 204.546875 28.40625 " fill-opacity="1" fill-rule="nonzero"/></g><g clip-path="url(#69c4bd781c)"><path fill="#ffffff" d="M 204.339844 5.101562 L 189.367188 5.101562 C 189.25 5.101562 189.148438 5.144531 189.066406 5.226562 C 188.984375 5.308594 188.941406 5.410156 188.941406 5.527344 L 188.941406 23.496094 C 188.941406 23.613281 188.984375 23.714844 189.066406 23.796875 C 189.148438 23.882812 189.25 23.921875 189.367188 23.925781 L 204.339844 23.925781 C 204.460938 23.921875 204.558594 23.882812 204.644531 23.796875 C 204.726562 23.714844 204.769531 23.613281 204.769531 23.496094 L 204.769531 5.527344 C 204.769531 5.410156 204.726562 5.308594 204.644531 5.226562 C 204.558594 5.140625 204.457031 5.101562 204.339844 5.101562 Z M 193.566406 20.648438 C 193.652344 20.730469 193.695312 20.832031 193.695312 20.949219 C 193.695312 21.070312 193.652344 21.171875 193.566406 21.253906 C 193.484375 21.339844 193.382812 21.378906 193.261719 21.378906 C 193.144531 21.378906 193.042969 21.335938 192.960938 21.25 L 192.574219 20.863281 L 192.191406 21.25 C 192.105469 21.335938 192.003906 21.378906 191.886719 21.378906 C 191.765625 21.378906 191.664062 21.339844 191.582031 21.253906 C 191.496094 21.171875 191.453125 21.070312 191.453125 20.949219 C 191.453125 20.832031 191.496094 20.730469 191.582031 20.648438 L 191.972656 20.261719 L 191.582031 19.875 C 191.5 19.792969 191.457031 19.691406 191.457031 19.574219 C 191.457031 19.453125 191.5 19.351562 191.582031 19.269531 C 191.667969 19.183594 191.769531 19.144531 191.886719 19.144531 C 192.007812 19.144531 192.109375 19.1875 192.191406 19.269531 L 192.578125 19.65625 L 192.960938 19.269531 C 193.046875 19.1875 193.148438 19.144531 193.265625 19.144531 C 193.382812 19.144531 193.484375 19.1875 193.570312 19.269531 C 193.652344 19.351562 193.695312 19.453125 193.695312 19.574219 C 193.695312 19.691406 193.652344 19.792969 193.570312 19.875 L 193.179688 20.261719 Z M 193.921875 16.078125 L 192.527344 17.46875 C 192.445312 17.554688 192.34375 17.597656 192.226562 17.59375 C 192.109375 17.597656 192.007812 17.554688 191.921875 17.46875 L 191.226562 16.777344 C 191.144531 16.691406 191.101562 16.59375 191.101562 16.472656 C 191.101562 16.355469 191.144531 16.253906 191.226562 16.171875 C 191.308594 16.085938 191.410156 16.042969 191.527344 16.042969 C 191.648438 16.042969 191.75 16.085938 191.832031 16.171875 L 192.226562 16.566406 L 193.320312 15.476562 C 193.402344 15.386719 193.503906 15.34375 193.621094 15.34375 C 193.742188 15.34375 193.84375 15.382812 193.929688 15.46875 C 194.011719 15.554688 194.054688 15.65625 194.054688 15.773438 C 194.050781 15.894531 194.007812 15.996094 193.921875 16.078125 Z M 193.921875 12.226562 L 192.527344 13.621094 C 192.445312 13.707031 192.34375 13.746094 192.226562 13.746094 C 192.109375 13.75 192.007812 13.707031 191.921875 13.621094 L 191.226562 12.925781 C 191.140625 12.84375 191.101562 12.742188 191.101562 12.625 C 191.101562 12.503906 191.140625 12.40625 191.226562 12.320312 C 191.308594 12.238281 191.410156 12.195312 191.527344 12.195312 C 191.644531 12.195312 191.746094 12.238281 191.828125 12.320312 L 192.226562 12.714844 L 193.316406 11.625 C 193.398438 11.542969 193.5 11.5 193.617188 11.5 C 193.734375 11.5 193.835938 11.539062 193.921875 11.625 C 194.003906 11.707031 194.046875 11.808594 194.046875 11.925781 C 194.046875 12.042969 194.003906 12.144531 193.921875 12.226562 Z M 193.921875 8.378906 L 192.527344 9.773438 C 192.445312 9.855469 192.34375 9.898438 192.226562 9.894531 C 192.109375 9.898438 192.007812 9.855469 191.921875 9.773438 L 191.226562 9.074219 C 191.140625 8.992188 191.101562 8.890625 191.101562 8.773438 C 191.101562 8.65625 191.140625 8.554688 191.226562 8.472656 C 191.308594 8.386719 191.410156 8.34375 191.527344 8.34375 C 191.644531 8.34375 191.746094 8.386719 191.828125 8.472656 L 192.226562 8.867188 L 193.316406 7.773438 C 193.402344 7.695312 193.5 7.65625 193.617188 7.65625 C 193.734375 7.65625 193.832031 7.699219 193.914062 7.78125 C 193.996094 7.863281 194.039062 7.960938 194.039062 8.078125 C 194.039062 8.195312 194 8.292969 193.921875 8.378906 Z M 202.175781 21.054688 L 195.328125 21.054688 C 195.207031 21.058594 195.105469 21.019531 195.015625 20.933594 C 194.929688 20.851562 194.886719 20.75 194.886719 20.628906 C 194.886719 20.507812 194.929688 20.40625 195.015625 20.320312 C 195.105469 20.234375 195.207031 20.195312 195.328125 20.199219 L 202.175781 20.199219 C 202.289062 20.203125 202.386719 20.246094 202.46875 20.332031 C 202.546875 20.414062 202.589844 20.511719 202.589844 20.628906 C 202.589844 20.742188 202.546875 20.84375 202.46875 20.925781 C 202.386719 21.007812 202.289062 21.050781 202.175781 21.054688 Z M 202.175781 17.207031 L 195.328125 17.207031 C 195.207031 17.210938 195.105469 17.167969 195.015625 17.085938 C 194.929688 17 194.886719 16.898438 194.886719 16.777344 C 194.886719 16.65625 194.929688 16.554688 195.015625 16.46875 C 195.105469 16.386719 195.207031 16.347656 195.328125 16.351562 L 202.175781 16.351562 C 202.289062 16.355469 202.386719 16.398438 202.46875 16.480469 C 202.546875 16.5625 202.589844 16.664062 202.589844 16.777344 C 202.589844 16.894531 202.546875 16.992188 202.46875 17.074219 C 202.386719 17.160156 202.289062 17.203125 202.175781 17.207031 Z M 202.175781 13.355469 L 195.328125 13.355469 C 195.207031 13.359375 195.105469 13.320312 195.015625 13.234375 C 194.929688 13.152344 194.886719 13.046875 194.886719 12.925781 C 194.886719 12.804688 194.929688 12.703125 195.015625 12.621094 C 195.105469 12.535156 195.207031 12.496094 195.328125 12.5 L 202.175781 12.5 C 202.289062 12.503906 202.386719 12.546875 202.46875 12.628906 C 202.546875 12.710938 202.589844 12.8125 202.589844 12.925781 C 202.589844 13.042969 202.546875 13.140625 202.46875 13.226562 C 202.386719 13.308594 202.289062 13.351562 202.175781 13.355469 Z M 202.175781 9.503906 L 195.328125 9.503906 C 195.207031 9.507812 195.105469 9.46875 195.015625 9.382812 C 194.929688 9.300781 194.886719 9.199219 194.886719 9.078125 C 194.886719 8.957031 194.929688 8.855469 195.015625 8.769531 C 195.105469 8.6875 195.207031 8.644531 195.328125 8.648438 L 202.175781 8.648438 C 202.289062 8.652344 202.386719 8.695312 202.46875 8.78125 C 202.546875 8.863281 202.589844 8.960938 202.589844 9.078125 C 202.589844 9.191406 202.546875 9.292969 202.46875 9.375 C 202.386719 9.457031 202.289062 9.5 202.175781 9.503906 Z M 202.175781 9.503906 " fill-opacity="1" fill-rule="nonzero"/></g></svg>