<svg xmlns="http://www.w3.org/2000/svg" xmlns:xlink="http://www.w3.org/1999/xlink" width="350" zoomAndPan="magnify" viewBox="0 0 262.5 30.000001" height="40" preserveAspectRatio="xMidYMid meet" version="1.0"><defs><g/><clipPath id="e9a10e5d88"><path d="M 136.363281 0.503906 L 150.382812 0.503906 L 150.382812 14.523438 L 136.363281 14.523438 Z M 136.363281 0.503906 " clip-rule="nonzero"/></clipPath><clipPath id="7f71a0d983"><path d="M 150.917969 15.003906 L 164.941406 15.003906 L 164.941406 29 L 150.917969 29 Z M 150.917969 15.003906 " clip-rule="nonzero"/></clipPath><clipPath id="d0402d687a"><path d="M 136.363281 15.117188 L 150.382812 15.117188 L 150.382812 29.03125 L 136.363281 29.03125 Z M 136.363281 15.117188 " clip-rule="nonzero"/></clipPath><clipPath id="e66f8a2439"><path d="M 151.398438 0.589844 L 164.320312 0.589844 L 164.320312 5 L 151.398438 5 Z M 151.398438 0.589844 " clip-rule="nonzero"/></clipPath><clipPath id="311d3b954e"><path d="M 151.398438 10 L 164.320312 10 L 164.320312 14.609375 L 151.398438 14.609375 Z M 151.398438 10 " clip-rule="nonzero"/></clipPath><clipPath id="60e5bd370c"><path d="M 151.398438 5 L 164.320312 5 L 164.320312 10 L 151.398438 10 Z M 151.398438 5 " clip-rule="nonzero"/></clipPath></defs><g fill="#ffffff" fill-opacity="1"><g transform="translate(70.382411, 20.303401)"><g><path d="M 17.546875 -1.453125 L 15.84375 -3.25 C 16.75 -4.546875 17.28125 -6.3125 17.28125 -8.015625 C 17.28125 -12.4375 13.953125 -16.15625 9.265625 -16.15625 C 4.578125 -16.15625 1.28125 -12.4375 1.28125 -8.015625 C 1.28125 -3.328125 4.84375 0.203125 9.265625 0.203125 C 11.046875 0.203125 12.65625 -0.359375 13.984375 -1.34375 L 15.625 0.359375 Z M 14.59375 -8.015625 C 14.59375 -7.078125 14.359375 -6.015625 13.953125 -5.265625 L 6.96875 -12.96875 C 7.671875 -13.3125 8.453125 -13.5 9.265625 -13.5 C 12.21875 -13.5 14.59375 -10.953125 14.59375 -8.015625 Z M 9.265625 -2.453125 C 6.328125 -2.453125 3.9375 -4.71875 3.9375 -8.015625 C 3.9375 -9.15625 4.296875 -10.375 4.921875 -11.25 L 12.140625 -3.296875 C 11.3125 -2.78125 10.3125 -2.453125 9.265625 -2.453125 Z M 9.265625 -2.453125 "/></g></g></g><g fill="#ffffff" fill-opacity="1"><g transform="translate(89.098917, 20.303401)"><g><path d="M 7.765625 0.234375 C 11.15625 0.234375 13.75 -1.703125 13.75 -5.09375 L 13.75 -15.9375 L 11.09375 -15.9375 L 11.09375 -5.09375 C 11.09375 -3.328125 9.421875 -2.4375 7.765625 -2.4375 C 6.078125 -2.4375 4.59375 -3.25 4.46875 -5.09375 L 4.46875 -15.9375 L 1.796875 -15.9375 L 1.796875 -5.09375 C 1.796875 -1.828125 4.484375 0.234375 7.765625 0.234375 Z M 7.765625 0.234375 "/></g></g></g><g fill="#ffffff" fill-opacity="1"><g transform="translate(104.650467, 20.303401)"><g><path d="M 4.46875 -13.265625 L 12.4375 -13.265625 L 12.4375 -15.9375 L 1.796875 -15.9375 L 1.796875 0 L 12.4375 0 L 12.4375 -2.65625 L 4.46875 -2.65625 L 4.46875 -6.640625 L 11.09375 -6.640625 L 11.09375 -9.28125 L 4.46875 -9.28125 Z M 4.46875 -13.265625 "/></g></g></g><g fill="#ffffff" fill-opacity="1"><g transform="translate(118.038918, 20.303401)"><g><path d="M 6.078125 -7.96875 L 0.390625 0 L 3.640625 0 L 7.71875 -5.6875 L 11.765625 0 L 15.03125 0 L 9.328125 -7.96875 L 15.03125 -15.9375 L 11.765625 -15.9375 L 7.71875 -10.25 L 3.640625 -15.9375 L 0.390625 -15.9375 Z M 6.078125 -7.96875 "/></g></g></g><g clip-path="url(#e9a10e5d88)"><path fill="#ffffff" d="M 147.757812 1.582031 C 148.613281 1.582031 149.308594 2.277344 149.308594 3.132812 L 149.308594 11.898438 C 149.308594 12.753906 148.613281 13.449219 147.757812 13.449219 L 138.992188 13.449219 C 138.136719 13.449219 137.441406 12.753906 137.441406 11.898438 L 137.441406 3.132812 C 137.441406 2.277344 138.136719 1.582031 138.992188 1.582031 L 147.757812 1.582031 M 147.757812 0.503906 L 138.992188 0.503906 C 137.539062 0.503906 136.363281 1.679688 136.363281 3.132812 L 136.363281 11.898438 C 136.363281 13.351562 137.539062 14.527344 138.992188 14.527344 L 147.757812 14.527344 C 149.210938 14.527344 150.386719 13.351562 150.386719 11.898438 L 150.386719 3.132812 C 150.386719 1.679688 149.210938 0.503906 147.757812 0.503906 Z M 147.757812 0.503906 " fill-opacity="1" fill-rule="nonzero"/></g><path fill="#ffffff" d="M 147.960938 3.671875 L 147.097656 3.082031 C 146.859375 2.925781 146.535156 2.984375 146.375 3.222656 L 142.152344 9.445312 L 140.214844 7.503906 C 140.011719 7.304688 139.679688 7.304688 139.476562 7.503906 L 138.742188 8.246094 C 138.539062 8.445312 138.539062 8.777344 138.742188 8.980469 L 141.722656 11.960938 C 141.890625 12.128906 142.152344 12.257812 142.390625 12.257812 C 142.625 12.257812 142.863281 12.109375 143.015625 11.886719 L 148.097656 4.390625 C 148.257812 4.15625 148.199219 3.832031 147.960938 3.671875 Z M 147.960938 3.671875 " fill-opacity="1" fill-rule="nonzero"/><path fill="#ffffff" d="M 157.90625 25.488281 C 159.835938 25.488281 161.398438 23.921875 161.398438 21.992188 C 161.398438 20.0625 159.835938 18.5 157.90625 18.5 C 155.976562 18.5 154.414062 20.0625 154.414062 21.992188 C 154.414062 23.921875 155.976562 25.488281 157.90625 25.488281 Z M 157.90625 25.488281 " fill-opacity="1" fill-rule="nonzero"/><g clip-path="url(#7f71a0d983)"><path fill="#ffffff" d="M 164.894531 21.992188 C 164.894531 25.851562 161.765625 28.980469 157.90625 28.980469 C 154.046875 28.980469 150.917969 25.851562 150.917969 21.992188 C 150.917969 18.132812 154.046875 15.003906 157.90625 15.003906 C 161.765625 15.003906 164.894531 18.132812 164.894531 21.992188 Z M 163.496094 21.992188 C 163.496094 25.078125 160.992188 27.582031 157.90625 27.582031 C 154.820312 27.582031 152.316406 25.078125 152.316406 21.992188 C 152.316406 18.90625 154.820312 16.402344 157.90625 16.402344 C 160.992188 16.402344 163.496094 18.90625 163.496094 21.992188 Z M 163.496094 21.992188 " fill-opacity="1" fill-rule="evenodd"/></g><g clip-path="url(#d0402d687a)"><path fill="#ffffff" d="M 143.320312 15.117188 C 139.484375 15.117188 136.363281 18.238281 136.363281 22.074219 C 136.363281 25.90625 139.484375 29.03125 143.320312 29.03125 C 147.152344 29.03125 150.277344 25.90625 150.277344 22.074219 C 150.277344 18.238281 147.152344 15.117188 143.320312 15.117188 Z M 143.320312 16.074219 C 146.640625 16.074219 149.320312 18.753906 149.320312 22.074219 C 149.320312 25.394531 146.640625 28.074219 143.320312 28.074219 C 139.996094 28.074219 137.320312 25.394531 137.320312 22.074219 C 137.320312 18.753906 139.996094 16.074219 143.320312 16.074219 Z M 140.265625 19.230469 C 140.136719 19.234375 140.027344 19.289062 139.9375 19.386719 C 139.851562 19.484375 139.808594 19.597656 139.816406 19.726562 C 139.824219 19.859375 139.875 19.96875 139.972656 20.058594 C 140.070312 20.144531 140.1875 20.183594 140.316406 20.179688 L 146.320312 20.179688 C 146.453125 20.179688 146.566406 20.132812 146.660156 20.042969 C 146.753906 19.949219 146.800781 19.835938 146.800781 19.703125 C 146.800781 19.570312 146.753906 19.460938 146.660156 19.367188 C 146.566406 19.273438 146.453125 19.226562 146.320312 19.230469 L 140.316406 19.230469 C 140.300781 19.230469 140.285156 19.230469 140.265625 19.230469 Z M 140.265625 21.601562 C 140.136719 21.605469 140.027344 21.660156 139.9375 21.753906 C 139.851562 21.851562 139.808594 21.96875 139.816406 22.097656 C 139.824219 22.230469 139.875 22.339844 139.972656 22.425781 C 140.070312 22.515625 140.1875 22.554688 140.316406 22.546875 L 146.320312 22.546875 C 146.453125 22.550781 146.566406 22.503906 146.660156 22.410156 C 146.753906 22.320312 146.800781 22.207031 146.800781 22.074219 C 146.800781 21.941406 146.753906 21.828125 146.660156 21.734375 C 146.566406 21.644531 146.453125 21.597656 146.320312 21.601562 L 140.316406 21.601562 C 140.300781 21.597656 140.285156 21.597656 140.265625 21.601562 Z M 140.265625 23.96875 C 140.136719 23.976562 140.027344 24.027344 139.9375 24.125 C 139.851562 24.222656 139.808594 24.335938 139.816406 24.46875 C 139.824219 24.601562 139.875 24.710938 139.972656 24.796875 C 140.070312 24.886719 140.1875 24.925781 140.316406 24.917969 L 146.320312 24.917969 C 146.453125 24.917969 146.566406 24.875 146.660156 24.78125 C 146.753906 24.6875 146.800781 24.578125 146.800781 24.445312 C 146.800781 24.3125 146.753906 24.199219 146.660156 24.105469 C 146.566406 24.015625 146.453125 23.96875 146.320312 23.96875 L 140.316406 23.96875 C 140.300781 23.96875 140.285156 23.96875 140.265625 23.96875 Z M 140.265625 23.96875 " fill-opacity="1" fill-rule="nonzero"/></g><g clip-path="url(#e66f8a2439)"><path fill="#ffffff" d="M 156.601562 0.683594 L 152.886719 0.683594 L 152.886719 1.847656 L 151.410156 1.847656 L 151.410156 3.238281 L 152.886719 3.238281 L 152.886719 4.398438 L 156.601562 4.398438 L 156.601562 3.238281 L 164.402344 3.238281 L 164.402344 1.847656 L 156.601562 1.847656 Z M 155.207031 3.003906 L 154.28125 3.003906 L 154.28125 2.074219 L 155.207031 2.074219 Z M 155.207031 3.003906 " fill-opacity="1" fill-rule="nonzero"/></g><g clip-path="url(#311d3b954e)"><path fill="#ffffff" d="M 162.925781 10.722656 L 159.210938 10.722656 L 159.210938 11.878906 L 151.410156 11.878906 L 151.410156 13.273438 L 159.210938 13.273438 L 159.210938 14.433594 L 162.925781 14.433594 L 162.925781 13.273438 L 164.402344 13.273438 L 164.402344 11.878906 L 162.925781 11.878906 Z M 161.535156 13.042969 L 160.605469 13.042969 L 160.605469 12.113281 L 161.535156 12.113281 Z M 161.535156 13.042969 " fill-opacity="1" fill-rule="nonzero"/></g><g clip-path="url(#60e5bd370c)"><path fill="#ffffff" d="M 159.761719 5.703125 L 156.050781 5.703125 L 156.050781 6.863281 L 151.410156 6.863281 L 151.410156 8.253906 L 156.050781 8.253906 L 156.050781 9.414062 L 159.761719 9.414062 L 159.761719 8.253906 L 164.402344 8.253906 L 164.402344 6.863281 L 159.761719 6.863281 Z M 158.371094 8.023438 L 157.441406 8.023438 L 157.441406 7.09375 L 158.371094 7.09375 Z M 158.371094 8.023438 " fill-opacity="1" fill-rule="nonzero"/></g></svg>